<svg width="31" height="31" viewBox="0 0 31 31" fill="none" xmlns="http://www.w3.org/2000/svg">
<path d="M5.16667 27.125V15.0156L2.84167 16.7917L1.29167 14.725L5.16667 11.7542V7.75002H7.75V9.7844L15.5 3.87502L29.7083 14.725L28.1583 16.7594L25.8333 15.0156V27.125H5.16667ZM7.75 24.5417H14.2083V19.375H16.7917V24.5417H23.25V13.0459L15.5 7.13648L7.75 13.0459V24.5417ZM5.16667 6.45835C5.16667 5.38197 5.54341 4.46703 6.29688 3.71356C7.05035 2.96009 7.96528 2.58335 9.04167 2.58335C9.40764 2.58335 9.71463 2.45935 9.96263 2.21135C10.2106 1.96335 10.3342 1.6568 10.3333 1.29169H12.9167C12.9167 2.36808 12.5399 3.28301 11.7865 4.03648C11.033 4.78995 10.1181 5.16669 9.04167 5.16669C8.6757 5.16669 8.36914 5.29069 8.122 5.53869C7.87487 5.78669 7.75087 6.09324 7.75 6.45835H5.16667Z" fill="white"/>
</svg>
