<svg width="48" height="48" viewBox="0 0 48 48" fill="none" xmlns="http://www.w3.org/2000/svg">
<path d="M19.752 26.6971C19.752 26.6971 20.733 28.6971 23.032 29.3141C25.332 29.9301 27.182 28.6881 27.182 28.6881M26.634 22.1051C27.865 21.3521 29.414 21.8951 30.248 23.0741M19.675 20.2401C20.905 19.4861 22.455 20.0291 23.289 21.2081" stroke="white" stroke-width="2" stroke-linecap="round" stroke-linejoin="round"/>
<path d="M17.84 13.3871L15.286 23.6041C14.246 27.7711 15.606 31.7641 21.383 35.0111C28.011 35.0881 31.183 32.3101 32.366 28.1811L35.265 18.0561C35.265 18.0561 31.841 15.8101 26.884 14.4821C21.927 13.1541 17.838 13.3871 17.838 13.3871H17.84Z" stroke="white" stroke-width="2" stroke-linecap="round" stroke-linejoin="round"/>
<path d="M42.057 24C42.057 33.255 40.847 35.402 33.027 40.03C25.21 44.657 22.79 44.657 14.972 40.03C7.152 35.402 5.943 33.255 5.943 24C5.943 14.745 7.153 12.598 14.973 7.97001C22.79 3.34301 25.21 3.34301 33.028 7.97001C40.848 12.598 42.057 14.745 42.057 24Z" stroke="white" stroke-width="2" stroke-linecap="round" stroke-linejoin="round"/>
</svg>
