<svg width="42" height="42" viewBox="0 0 42 42" fill="none" xmlns="http://www.w3.org/2000/svg">
<path d="M8.75 22.75V6.125C8.75 5.712 8.75 5.5055 8.87775 5.37775C9.0055 5.25 9.212 5.25 9.625 5.25H16.793C17.143 5.25 17.318 5.25 17.4755 5.313C17.633 5.37775 17.7573 5.4985 18.0093 5.74175L20.6133 8.25825C20.8653 8.5015 20.9913 8.62225 21.1488 8.687C21.3063 8.75 21.4813 8.75 21.8313 8.75H32.6725C33.0978 8.75 33.3095 8.75 33.3847 8.8865C33.4582 9.023 33.3445 9.2015 33.1135 9.5585L28.3045 17.0275C28.1575 17.2585 28.0823 17.3723 28.0823 17.5018C28.0823 17.6295 28.1575 17.7467 28.3045 17.9742L33.1135 25.4432C33.3445 25.8002 33.4582 25.9788 33.3847 26.1153C33.3095 26.2518 33.0978 26.2518 32.6725 26.2518H21.8295C21.4795 26.2518 21.3045 26.2518 21.147 26.1888C20.9895 26.124 20.8653 26.0033 20.6133 25.76L18.0093 23.2435C17.7573 23.0002 17.6312 22.8795 17.4737 22.8147C17.3162 22.7517 17.1413 22.7518 16.7913 22.7518L8.75 22.75ZM8.75 22.75V33.25" stroke="white" stroke-width="2" stroke-linecap="round"/>
</svg>
