<svg width="30" height="31" viewBox="0 0 30 31" fill="none" xmlns="http://www.w3.org/2000/svg">
<g id="instagram 1">
<path id="Vector" d="M9.59999 2.2998C5.29799 2.2998 1.79999 5.7978 1.79999 10.0998V20.8998C1.79999 25.2018 5.29799 28.6998 9.59999 28.6998H20.4C24.702 28.6998 28.2 25.2018 28.2 20.8998V10.0998C28.2 5.7978 24.702 2.2998 20.4 2.2998H9.59999ZM22.2 7.0998C22.86 7.0998 23.4 7.6398 23.4 8.2998C23.4 8.95981 22.86 9.4998 22.2 9.4998C21.54 9.4998 21 8.95981 21 8.2998C21 7.6398 21.54 7.0998 22.2 7.0998ZM15 8.89981C18.642 8.89981 21.6 11.8578 21.6 15.4998C21.6 19.1418 18.642 22.0998 15 22.0998C11.358 22.0998 8.39999 19.1418 8.39999 15.4998C8.39999 11.8578 11.358 8.89981 15 8.89981ZM15 10.0998C12.024 10.0998 9.59999 12.5238 9.59999 15.4998C9.59999 18.4758 12.024 20.8998 15 20.8998C17.976 20.8998 20.4 18.4758 20.4 15.4998C20.4 12.5238 17.976 10.0998 15 10.0998Z" fill="white"/>
</g>
</svg>
