<svg width="29" height="29" viewBox="0 0 29 29" fill="none" xmlns="http://www.w3.org/2000/svg">
<path id="Vector" d="M23.1678 12.5506L19.6233 9.00611C19.1722 8.555 19.0433 7.92667 19.2206 7.36278C19.8167 5.55833 20.1389 3.625 20.1389 1.61111C20.1389 0.725 20.8639 0 21.75 0H27.3889C28.275 0 29 0.725 29 1.61111C29 16.7394 16.7394 29 1.61111 29C0.725 29 0 28.275 0 27.3889V21.7661C0 20.88 0.725 20.155 1.61111 20.155C3.60889 20.155 5.55833 19.8328 7.36278 19.2367C7.92667 19.0433 8.57111 19.1883 9.00611 19.6233L12.5506 23.1678C17.11 20.8317 20.8478 17.11 23.1678 12.5506Z" fill="white"/>
</svg>
