<svg width="43" height="43" viewBox="0 0 43 43" fill="none" xmlns="http://www.w3.org/2000/svg">
<path d="M42.8841 31.7041L32.1341 7.5166C32.0285 7.27912 31.8563 7.07735 31.6384 6.93574C31.4205 6.79413 31.1661 6.71875 30.9062 6.71875H12.0938C11.8361 6.71917 11.584 6.79366 11.3675 6.93333C11.151 7.073 10.9792 7.27196 10.8726 7.50652C10.8721 7.50987 10.8721 7.51326 10.8726 7.5166V7.53676L0.115898 31.7041C0.0249402 31.9087 -0.0134553 32.1328 0.00419983 32.356C0.021855 32.5792 0.0950013 32.7944 0.216993 32.9822C0.338984 33.1699 0.505953 33.3242 0.70273 33.431C0.899507 33.5378 1.11985 33.5937 1.34375 33.5938H41.6562C41.8801 33.5937 42.1005 33.5378 42.2973 33.431C42.494 33.3242 42.661 33.1699 42.783 32.9822C42.905 32.7944 42.9781 32.5792 42.9958 32.356C43.0135 32.1328 42.9751 31.9087 42.8841 31.7041ZM10.75 30.9062H3.41144L10.75 14.3949V30.9062ZM13.4375 30.9062V14.3949L20.7761 30.9062H13.4375ZM23.7172 30.9062L14.1614 9.40625H30.0328L39.5886 30.9062H23.7172Z" fill="white"/>
</svg>
