<svg width="29" height="31" viewBox="0 0 29 31" fill="none" xmlns="http://www.w3.org/2000/svg">
<g id="whatsapp">
<path id="Vector" d="M14.5 1.7002C7.14444 1.7002 1.16 7.891 1.16 15.5002C1.16 17.8762 1.75334 20.2126 2.87854 22.2742L1.18146 28.5382C1.12578 28.744 1.17972 28.9648 1.32356 29.1178C1.43434 29.236 1.58514 29.3002 1.74 29.3002C1.7864 29.3002 1.83338 29.2942 1.8792 29.2828L8.19888 27.6634C10.1285 28.735 12.3018 29.3002 14.5 29.3002C21.8556 29.3002 27.84 23.1094 27.84 15.5002C27.84 7.891 21.8556 1.7002 14.5 1.7002ZM21.2106 20.3698C20.9252 21.187 19.5564 21.9328 18.8987 22.033C18.3083 22.1224 17.5612 22.1608 16.7411 21.8944C16.2441 21.7324 15.6061 21.5176 14.7888 21.157C11.3535 19.6414 9.11006 16.108 8.93838 15.8746C8.76728 15.6412 7.54 13.978 7.54 12.2566C7.54 10.5352 8.4245 9.6886 8.73886 9.3382C9.05322 8.9878 9.42384 8.9002 9.65236 8.9002C9.88088 8.9002 10.1088 8.9032 10.3089 8.9128C10.5195 8.9236 10.8019 8.8306 11.0797 9.5134C11.3651 10.2142 12.0501 11.9356 12.1348 12.1114C12.2206 12.2866 12.2774 12.4912 12.1638 12.7246C12.0501 12.958 11.9932 13.1038 11.8216 13.3084C11.6499 13.513 11.462 13.7644 11.3077 13.9216C11.136 14.0962 10.9579 14.2852 11.1575 14.6356C11.357 14.986 12.0443 16.1314 13.0628 17.059C14.3707 18.2506 15.4744 18.6202 15.8166 18.7954C16.1588 18.9706 16.3589 18.9412 16.5584 18.7078C16.7579 18.4738 17.4145 17.686 17.6424 17.3362C17.8704 16.9864 18.0989 17.044 18.4133 17.161C18.7276 17.2774 20.4114 18.1234 20.7536 18.2986C21.0958 18.4738 21.3243 18.5614 21.4101 18.7072C21.496 18.8524 21.496 19.5532 21.2106 20.3698Z" fill="white"/>
</g>
</svg>
