<svg width="30" height="31" viewBox="0 0 30 31" fill="none" xmlns="http://www.w3.org/2000/svg">
<g id="youtube 1">
<path id="Vector" d="M15 4.5C10.814 4.5 5.38086 5.54883 5.38086 5.54883L5.36719 5.56445C3.46066 5.86936 2 7.50762 2 9.5V15.5V15.502V21.5V21.502C2.00186 22.4535 2.34287 23.3732 2.9618 24.0959C3.58073 24.8187 4.43703 25.2971 5.37695 25.4453L5.38086 25.4512C5.38086 25.4512 10.814 26.502 15 26.502C19.186 26.502 24.6191 25.4512 24.6191 25.4512L24.6211 25.4492C25.562 25.3013 26.4193 24.8225 27.0387 24.0989C27.6581 23.3753 27.999 22.4544 28 21.502V21.5V15.502V15.5V9.5C27.9986 8.54813 27.6578 7.62795 27.0388 6.90481C26.4199 6.18166 25.5633 5.70295 24.623 5.55469L24.6191 5.54883C24.6191 5.54883 19.186 4.5 15 4.5ZM12 10.8984L20 15.5L12 20.1016V10.8984Z" fill="white"/>
</g>
</svg>
